<?xml version="1.0" encoding="UTF-8" standalone="no"?>
<svg
   xmlns:dc="http://purl.org/dc/elements/1.1/"
   xmlns:cc="http://creativecommons.org/ns#"
   xmlns:rdf="http://www.w3.org/1999/02/22-rdf-syntax-ns#"
   xmlns:svg="http://www.w3.org/2000/svg"
   xmlns="http://www.w3.org/2000/svg"
   id="svg8"
   version="1.1"
   viewBox="0 0 198.51613 30.588142"
   height="30.588142mm"
   width="198.51613mm">
  <defs
     id="defs2" />
  <metadata
     id="metadata5">
    <rdf:RDF>
      <cc:Work
         rdf:about="">
        <dc:format>image/svg+xml</dc:format>
        <dc:type
           rdf:resource="http://purl.org/dc/dcmitype/StillImage" />
        <dc:title></dc:title>
      </cc:Work>
    </rdf:RDF>
  </metadata>
  <g
     transform="translate(-4.1694283,-39.894355)"
     id="layer1">
    <text
       id="text12"
       y="80.041664"
       x="24.190477"
       style="font-style:normal;font-variant:normal;font-weight:normal;font-stretch:normal;font-size:10.58333302px;line-height:1.25;font-family:'Elegant Line 7';-inkscape-font-specification:'Elegant Line 7, Normal';font-variant-ligatures:normal;font-variant-caps:normal;font-variant-numeric:normal;text-align:start;letter-spacing:0px;word-spacing:0px;writing-mode:lr-tb;text-anchor:start;fill:#000000;fill-opacity:1;stroke:none;stroke-width:0.26458332"
       xml:space="preserve"><tspan
         style="stroke-width:0.26458332"
         y="89.594788"
         x="24.190477"
         id="tspan10" /></text>
    <flowRoot
       style="font-style:normal;font-variant:normal;font-weight:normal;font-stretch:normal;font-size:40px;line-height:1.25;font-family:'Elegant Line 7';-inkscape-font-specification:'Elegant Line 7, Normal';font-variant-ligatures:normal;font-variant-caps:normal;font-variant-numeric:normal;text-align:start;letter-spacing:0px;word-spacing:0px;writing-mode:lr-tb;text-anchor:start;fill:#000000;fill-opacity:1;stroke:none"
       id="flowRoot22"
       xml:space="preserve"><flowRegion
         id="flowRegion24"><rect
           y="459.67899"
           x="693.62274"
           height="49.25132"
           width="34.886353"
           id="rect26" /></flowRegion><flowPara
         id="flowPara28">534</flowPara></flowRoot>    <text
       id="text32"
       y="58.639851"
       x="211.21205"
       style="font-style:normal;font-variant:normal;font-weight:normal;font-stretch:normal;font-size:10.58333302px;line-height:1.25;font-family:'Elegant Line 7';-inkscape-font-specification:'Elegant Line 7, Normal';font-variant-ligatures:normal;font-variant-caps:normal;font-variant-numeric:normal;text-align:start;letter-spacing:0px;word-spacing:0px;writing-mode:lr-tb;text-anchor:start;fill:#000000;fill-opacity:1;stroke:none;stroke-width:0.26458332"
       xml:space="preserve"><tspan
         style="stroke-width:0.26458332"
         y="68.19297"
         x="211.21205"
         id="tspan30" /></text>
    <g
       transform="matrix(0.21772778,0,0,0.21772778,120.71467,29.048819)"
       id="layer1-8">
      <g
         id="g347"
         style="stroke:#000000;stroke-width:0.26458001px"
         transform="translate(-0.58870263,0.67608073)">
        <path
           id="path343"
           transform="matrix(1.2152025,0,0,1.2152025,-534.69091,49.136286)"
           d="M 526.23438 0.22265625 L 488.60938 64.396484 L 482.04297 52.416016 L 441.9043 115.49805 L 605.54492 115.5 L 579.85156 80.648438 L 574.9375 90.478516 L 526.23438 0.22265625 z M 526.20117 12.587891 L 545.37305 46.783203 L 538.14648 53.615234 L 526.20117 43.333984 L 515.29102 53.615234 L 505.38867 46.617188 L 526.20117 12.587891 z "
           style="stroke-width:0.21772505px" />
      </g>
    </g>
    <g
       transform="matrix(0.46815467,0,0,0.46815467,55.00743,29.351707)"
       id="text36"
       style="font-style:normal;font-variant:normal;font-weight:normal;font-stretch:normal;font-size:23.6845417px;line-height:1.25;font-family:'Elegant Line 7';-inkscape-font-specification:'Elegant Line 7, Normal';font-variant-ligatures:normal;font-variant-caps:normal;font-variant-numeric:normal;text-align:start;letter-spacing:0px;word-spacing:0px;writing-mode:lr-tb;text-anchor:start;fill:#000000;fill-opacity:1;stroke:none;stroke-width:0.59211349"
       aria-label="TrekBase">
      <path
         id="path765"
         style="font-size:78.94847107px;stroke-width:0.59211349"
         d="m -108.59232,33.888588 v -3.854906 h 46.258866 v 3.854906 h -21.201982 v 53.968681 h -3.854905 V 33.888588 Z" />
      <path
         id="path767"
         style="font-size:78.94847107px;stroke-width:0.59211349"
         d="m -50.768736,87.857269 h -3.854906 V 41.5984 h 3.854906 v 6.668987 q 3.854906,-5.551065 19.274529,-6.668987 23.1294348,0 23.1294348,23.129434 h -3.8549058 q 0,-19.274529 -19.274529,-19.274529 -15.419623,1.696159 -19.274529,8.904833 z" />
      <path
         id="path769"
         style="font-size:78.94847107px;stroke-width:0.59211349"
         d="m 22.474474,87.857269 q -23.12943463,0 -23.12943463,-23.129435 0,-23.129434 23.12943463,-23.129434 23.129435,0 23.129435,23.129434 V 76.292552 H 5.8212811 q 3.1224737,7.709811 16.6531929,7.709811 h 15.419624 v 3.854906 z M 41.749003,72.437646 v -7.709812 q 0,-19.274529 -19.274529,-19.274529 -19.2745288,0 -19.2745288,19.274529 0,3.854906 1.1179227,7.709812 z" />
      <path
         id="path771"
         style="font-size:78.94847107px;stroke-width:0.59211349"
         d="M 57.168619,87.857269 H 53.313713 V 30.033682 h 3.854906 v 34.694152 h 7.709812 L 94.36846,41.5984 h 5.204123 L 68.733336,66.809484 99.572583,87.857269 H 93.327635 L 64.878431,68.58274 h -7.709812 z" />
      <path
         id="path773"
         style="font-size:78.94847107px;stroke-width:0.59211349"
         d="M 107.2824,87.857269 V 30.033682 h 23.12944 c 12.84969,0 19.72427,6.424843 20.62374,19.274529 -0.89947,5.139875 -3.91915,8.352296 -9.05903,9.637265 7.70981,1.284969 11.56472,5.358319 11.56472,12.220051 -2.56993,11.127828 -1.98151,16.691742 -14.8312,16.691742 z m 3.85491,-30.839246 h 23.12943 c 7.70981,0 12.01446,-2.569937 12.91394,-7.709812 -0.89948,-10.279749 -6.48909,-15.419623 -16.76884,-15.419623 h -19.27453 z m 0,26.98434 h 19.27453 c 10.94793,0 17.37278,-4.304645 19.27453,-12.913934 0,-6.810333 -5.13988,-10.2155 -15.41963,-10.2155 h -23.12943 z" />
      <path
         id="path777"
         style="font-size:78.94847107px;stroke-width:0.59211349"
         d="m 256.0432,53.163117 q -2.27439,-7.941106 -17.69402,-7.941106 -15.41962,0 -19.27452,11.796012 0,5.666711 10.52389,5.666711 H 246.059 q 15.41962,0 15.41962,9.752912 v 0 q -3.85491,15.419623 -23.12944,15.419623 -19.27452,0 -21.12488,-11.564717 h 3.85491 q 1.85035,7.709811 17.26997,7.709811 15.41963,0 19.27453,-11.564717 0,-5.898006 -11.56471,-5.898006 h -16.46045 q -14.3788,0 -14.3788,-9.521617 3.85491,-15.650918 23.12943,-15.650918 19.27453,0 21.54893,11.796012 z" />
      <path
         id="path779"
         style="font-size:78.94847107px;stroke-width:0.59211349"
         d="m 292.31787,87.857269 q -23.12943,0 -23.12943,-23.129435 0,-23.129434 23.12943,-23.129434 23.12944,0 23.12944,23.129434 v 11.564718 h -39.78263 q 3.12247,7.709811 16.65319,7.709811 h 15.41963 v 3.854906 z M 311.5924,72.437646 v -7.709812 q 0,-19.274529 -19.27453,-19.274529 -19.27453,0 -19.27453,19.274529 0,3.854906 1.11793,7.709812 z" />
    </g>
  </g>
</svg>
